# xmcd
#
# Track frame offsets: 
#        150
#        16699
#        49371
#        62705
#        91225
#        116603
#        134385
#        167032
#        185939
#        211862
#        237890
#        258014
#
# Disc length: 3728 seconds
#
# Revision: 3
# Processed by: cddbd v1.5.2PL0 Copyright (c) Steve Scherf et al.
# Submitted via: ExactAudioCopy v0.99pb5
#
DISCID=a10e8e0c
DTITLE=Bill Carrothers - After Hours
DYEAR=1998
DGENRE=Jazz
TTITLE0=In The Wee Small Hours
TTITLE1=On Green Dolphin St
TTITLE2=On Green Dolphin St. (reprise)
TTITLE3=For Heaven's Sake
TTITLE4=Chelsea Bridge
TTITLE5=It's Easy to Remember
TTITLE6=My Heart belongs to daddy
TTITLE7=Lost in the stars
TTITLE8=A flower is a lovesome thing
TTITLE9=Ps I love you
TTITLE10=Young and Foolish
TTITLE11=For All we know
EXTD=YEAR: 1998
EXTT0=
EXTT1=
EXTT2=
EXTT3=
EXTT4=
EXTT5=
EXTT6=
EXTT7=
EXTT8=
EXTT9=
EXTT10=
EXTT11=
PLAYORDER=
